# xmcd
#
# Track frame offsets: 
#        150
#        41640
#        71432
#        97055
#        117595
#        154305
#
# Disc length: 2559 seconds
#
# Revision: 4
# Processed by: cddbd v1.5.2PL0 Copyright (c) Steve Scherf et al.
# Submitted via: ExactAudioCopy v0.95a5
#
DISCID=5209fd06
DTITLE=Buddy Guy -  - Stone Crazy!
DYEAR=1991
DGENRE=Blues
TTITLE0=Buddy Guy - I Smell A Rat
TTITLE1=Buddy Guy - Are You Losing Your Mind?
TTITLE2=Buddy Guy - You've Been Gone Too Long
TTITLE3=Buddy Guy - She's Out There Somewhere
TTITLE4=Buddy Guy - Outskirts Of Town
TTITLE5=Buddy Guy - When I Left Home
EXTD=YEAR: 1981 ID3G: 0
EXTT0=
EXTT1=
EXTT2=
EXTT3=
EXTT4=
EXTT5=
PLAYORDER=
